<?xml version="1.0" encoding="UTF-8"?>
<svg width="317px" height="240px" viewBox="0 0 317 240" version="1.1" xmlns="http://www.w3.org/2000/svg" xmlns:xlink="http://www.w3.org/1999/xlink">
    <!-- Generator: Sketch 56.3 (81716) - https://sketch.com -->
    <title>Group</title>
    <desc>Created with Sketch.</desc>
    <defs>
        <linearGradient x1="50%" y1="0%" x2="50%" y2="100%" id="linearGradient-1">
            <stop stop-color="#00FFF8" offset="0%"></stop>
            <stop stop-color="#6DD7D4" offset="100%"></stop>
        </linearGradient>
    </defs>
    <g id="Page-1" stroke="none" stroke-width="1" fill="none" fill-rule="evenodd">
        <g id="DonutChart" transform="translate(-831.000000, -191.000000)">
            <g id="Group" transform="translate(828.000000, 211.000000)">
                <g id="Donut-3" transform="translate(63.000000, 0.000000)" stroke-width="40">
                    <path d="M100,200 C155.228475,200 200,155.228475 200,100 C200,44.771525 155.228475,0 100,0 C44.771525,0 0,44.771525 0,100 C0,155.228475 44.771525,200 100,200 Z" id="Oval" stroke="#6DD7D4" stroke-dasharray="4"></path>
                    <path d="M100,200 C155.228475,200 200,155.228475 200,100 C200,44.771525 155.228475,0 100,0 C44.771525,0 0,44.771525 0,100 C0,155.228475 44.771525,200 100,200 Z" id="Oval" stroke="url(#linearGradient-1)" stroke-dasharray="314,314"></path>
                </g>
                <text id="p-a-y-c-h-u-n-k" font-family="Typewriter_Condensed-Bold, Typewriter_Condensed" font-size="48" font-style="condensed" font-weight="bold" fill="#000000">
                    <tspan x="0" y="118">p a y c h u n k</tspan>
                </text>
            </g>
        </g>
    </g>
</svg>