<?xml version="1.0" encoding="UTF-8"?>
<svg width="119px" height="88px" viewBox="0 0 119 88" version="1.1" xmlns="http://www.w3.org/2000/svg" xmlns:xlink="http://www.w3.org/1999/xlink">
    <!-- Generator: Sketch 56.3 (81716) - https://sketch.com -->
    <title>Group 3</title>
    <desc>Created with Sketch.</desc>
    <g id="Page-1" stroke="none" stroke-width="1" fill="none" fill-rule="evenodd">
        <g id="Artboard" transform="translate(-808.000000, -446.000000)">
            <g id="Group-3" transform="translate(807.000000, 453.000000)">
                <g id="Donut-3" transform="translate(24.000000, 0.000000)" stroke="#A4D9FF" stroke-width="13">
                    <path d="M37,74 C57.4345357,74 74,57.4345357 74,37 C74,16.5654643 57.4345357,0 37,0 C16.5654643,0 0,16.5654643 0,37 C0,57.4345357 16.5654643,74 37,74 Z" id="Oval" stroke-dasharray="4"></path>
                    <path d="M37,74 C57.4345357,74 74,57.4345357 74,37 C74,16.5654643 57.4345357,0 37,0 C16.5654643,0 0,16.5654643 0,37 C0,57.4345357 16.5654643,74 37,74 Z" id="Oval" stroke-dasharray="117,283"></path>
                </g>
                <text id="p-a-y-c-h-u-n-k" font-family="Typewriter_Condensed-Bold, Typewriter_Condensed" font-size="18" font-style="condensed" font-weight="bold" fill="#000000">
                    <tspan x="0" y="44">p a y c h u n k</tspan>
                </text>
            </g>
        </g>
    </g>
</svg>